<svg width="129" height="36" viewBox="0 0 129 36" fill="none" xmlns="http://www.w3.org/2000/svg">
<path fill-rule="evenodd" clip-rule="evenodd" d="M81.3301 31.4895H56.5438C53.2591 31.4895 48.95 29.8423 46.5792 27.4975C45.2541 26.1871 44.4437 25.2187 43.5853 23.5139C41.3029 18.9807 42.0361 13.867 45.1292 9.90958C45.5289 9.39807 46.4021 8.44668 46.9177 8.04634C48.5142 6.80691 49.4448 6.10616 51.4655 5.35513C53.3086 4.67004 55.2035 4.30268 57.7179 4.30268H80.0908C83.848 4.30268 87.6235 5.32216 90.4119 7.61252C90.5907 7.75944 90.7379 7.88956 90.9095 8.02802C93.3022 9.95808 95.0344 13.0764 95.4737 16.1792C95.9649 19.6491 94.9946 22.9224 92.9599 25.6411C92.0646 26.8373 91.8024 26.9804 90.8377 27.888C90.6803 28.036 90.5386 28.1168 90.3592 28.2572C90.0105 28.53 89.7211 28.7628 89.3325 28.9913C88.5937 29.4257 87.8754 29.8774 87.0433 30.2238C85.5634 30.8398 83.3772 31.4895 81.3304 31.4895H81.3301ZM37.041 17.7331C37.041 24.4198 40.8389 30.4825 45.9994 33.2926C46.4967 33.5633 46.9249 33.8227 47.4584 34.051C49.5483 34.9455 51.8332 35.6621 54.7828 35.6621H83.0913C85.7728 35.6621 88.7724 34.9263 91.1151 33.707L93.1832 32.4491C93.4144 32.2758 93.5956 32.1641 93.8263 31.9836C95.3275 30.809 96.5017 29.6045 97.6109 28.0081C98.3139 26.9962 98.665 26.3539 99.225 25.1882C101.249 20.9756 101.287 15.6777 99.6132 11.3898C99.4523 10.9776 99.3003 10.6636 99.1381 10.3001C99.0507 10.1042 99.0111 9.95897 98.8977 9.75798C97.7142 7.66116 96.3148 5.6352 94.4034 4.14476C94.2373 4.01515 94.1359 3.90461 93.9851 3.79028C93.0451 3.07791 92.6157 2.83156 91.6244 2.22847C90.0095 1.24625 86.4797 0.10334 84.5263 0.0649355C83.8719 0.0520499 83.9506 -0.000126101 83.0262 2.29013e-07H56.6093C53.4491 2.29013e-07 51.1725 0.108901 48.4741 1.1918C46.4952 1.98604 45.1967 2.74022 43.5729 4.05127C39.6555 7.21445 37.0411 12.3187 37.0411 17.7333L37.041 17.7331Z" fill="#F9A53A"/>
<path fill-rule="evenodd" clip-rule="evenodd" d="M105.706 12.8757C105.706 13.5667 105.786 14.322 105.908 14.9267C106.316 16.9631 107.342 18.2462 109.24 19.0895C109.383 19.1531 109.488 19.1979 109.637 19.2561C109.931 19.3711 110.206 19.4624 110.533 19.5437C112.154 19.9463 113.355 20.1141 115.015 20.2499C115.196 20.2647 115.395 20.243 115.576 20.2526C115.824 20.2657 115.812 20.303 116.082 20.311C116.284 20.317 116.504 20.298 116.704 20.3089C116.952 20.3222 116.94 20.3594 117.21 20.3673C117.394 20.3726 117.593 20.3554 117.776 20.3651C118.572 20.4078 120.219 20.5649 120.856 20.7249C122.113 21.0404 123.076 21.6019 123.407 22.7962C123.715 23.9078 123.218 25.4584 122.385 26.1496C120.75 27.5065 119.234 27.3483 117.212 27.3483C114.964 27.3483 113.301 26.9711 111.797 26.2221C110.888 25.7693 110.572 25.5116 109.778 24.9719C109.431 24.7358 109.179 24.4987 108.798 24.3175C106.004 22.9895 104.32 25.8589 105.312 27.5722C106.16 29.0349 108.592 30.3089 110.178 30.9363C110.727 31.1534 111.397 31.3042 111.977 31.4485C112.622 31.6089 113.299 31.7015 113.993 31.8004C114.66 31.8953 115.385 31.9635 116.142 31.9641C116.527 31.9644 116.816 32.0223 117.269 32.0236C118.845 32.0281 120.955 31.7421 122.445 31.335C123.689 30.9951 124.693 30.5316 125.705 29.9153C126.098 29.6758 126.659 29.2064 126.983 28.883C128.467 27.4012 129 25.6332 129 23.35C129 19.8438 127.982 17.9152 125.011 16.6328C123.172 15.839 120.929 15.6876 118.904 15.5784C118.612 15.5627 118.293 15.5946 118.001 15.5789C116.256 15.4848 114.118 15.4597 112.605 14.6594C110.634 13.6169 110.866 10.8029 112.766 9.56316C114.801 8.2355 118.393 8.54835 120.629 9.18189C122.966 9.84414 123.927 10.9625 124.643 11.1433C125.125 11.265 125.933 11.342 126.426 11.2075C127.649 10.8741 129.502 8.59221 126.631 6.56849C125.632 5.86467 125.277 5.694 124.169 5.1974C121.035 3.79304 116.197 3.76085 112.767 4.60859C110.433 5.18551 107.871 6.62948 106.703 8.74629C106.02 9.98381 105.706 10.9831 105.706 12.8756L105.706 12.8757Z" fill="#22AFBF"/>
<path fill-rule="evenodd" clip-rule="evenodd" d="M0.000108126 6.6183V29.4664C0.000108126 30.8037 1.19392 31.9803 2.3497 31.9803H2.85321C3.89944 31.9803 4.82249 31.014 5.06963 30.1713C5.31927 29.3202 5.20291 27.3304 5.20291 26.2264C5.20291 23.5263 5.20291 20.8262 5.20291 18.1262C5.2625 18.1697 5.59676 18.5472 5.69244 18.6426L7.25767 20.2641C7.96065 20.9933 8.66667 21.6687 9.38471 22.3857C9.75018 22.7506 10.0297 23.0857 10.3917 23.4472C11.2758 24.3298 12.197 25.1933 13.0215 26.1282L16.6854 29.8435C17.8918 31.0483 18.8765 32.4937 20.7071 31.8761C22.472 31.2808 23.1574 29.1025 21.6932 27.5245L16.688 22.467C16.5557 22.309 16.5309 22.2566 16.3782 22.1059L14.0272 19.761C13.8774 19.612 13.8496 19.5445 13.7199 19.3975C12.6413 18.1743 12.0186 18.1898 12.732 17.656C12.9328 17.5058 12.9075 17.4732 13.0504 17.3037C13.1662 17.1664 13.2831 17.1158 13.4133 16.9957C13.773 16.6639 13.8112 16.5374 14.0555 16.2962C14.9523 15.4108 15.8833 14.5294 16.7138 13.5878L17.7204 12.5819C18.6316 11.672 19.467 10.7819 20.3777 9.87249C21.3808 8.87089 22.5455 8.0571 22.5455 6.61851C22.5455 5.29521 21.3675 4.04876 20.1398 4.04876C19.4645 4.04876 19.0315 4.0808 18.4682 4.50242C17.8383 4.97383 16.4734 6.45734 15.8188 7.16386C15.2606 7.76646 14.6432 8.33637 14.0559 8.92285L9.66437 13.4198C8.39969 14.6826 6.63747 16.5221 5.39414 17.6944L5.20291 17.847V7.67976C5.20377 7.3167 5.15187 7.0239 5.1574 6.75014C5.17463 5.90074 4.97082 5.27616 4.26578 4.6492C2.75894 3.3089 0 4.28636 0 6.61851L0.000108126 6.6183Z" fill="#22AFBF"/>
<path fill-rule="evenodd" clip-rule="evenodd" d="M70.6368 17.5384C70.6368 19.6025 70.8099 20.8862 71.7022 22.6671C72.1517 23.5643 72.1115 23.4805 72.6706 24.307C72.853 24.5767 73.0467 24.7801 73.2611 25.0208L73.8809 25.7052C74.0349 25.8598 74.0759 25.8773 74.2338 26.0044C76.3218 27.6847 78.2602 28.687 81.3341 28.687C89.8248 28.687 95.3936 18.7521 89.581 11.3164C89.4536 11.1533 89.3975 11.105 89.2825 10.9628C88.7838 10.3449 88.225 9.89503 87.5772 9.40752C86.0222 8.23707 83.7189 7.36792 81.7905 7.36792C79.8457 7.36792 78.39 7.53303 76.7238 8.36681C74.4088 9.52525 72.7952 11.1382 71.6361 13.4521C71.163 14.3965 70.6367 16.154 70.6367 17.5385L70.6368 17.5384Z" fill="#F9A53A"/>
<path fill-rule="evenodd" clip-rule="evenodd" d="M27.6328 6.89279V29.3618C27.6328 30.7452 28.8145 31.9888 29.9776 31.9888C30.6726 31.9888 31.2101 31.9663 31.8081 31.474C32.4275 30.964 32.8249 30.2868 32.8249 29.4178V6.61337C32.8249 5.26878 31.7013 4.04224 30.3683 4.04224C29.4485 4.04224 28.8774 4.26004 28.289 4.92286C27.8699 5.39495 27.6328 6.01987 27.6328 6.89279Z" fill="#22AFBF"/>
</svg>
